<svg width="101" height="78" viewBox="0 0 101 78" fill="none" xmlns="http://www.w3.org/2000/svg">
  <path fill-rule="evenodd" clip-rule="evenodd" d="M19.12 9.53524C20.668 9.65015 21.7042 9.49528 23.3991 9.28545C26.4617 8.89838 29.4828 8.24044 32.4258 7.31958L33.6495 6.9274L33.0339 5.07643L30.2471 5.92823C27.9264 6.56333 25.5625 7.03332 23.1736 7.33457C19.2138 7.80667 15.1045 7.70426 14.1114 5.53605V5.51107C13.7389 4.73172 14.8131 4.0298 16.0799 3.49774C17.1505 3.06174 18.2511 2.70113 19.3734 2.41863C19.5533 2.37117 19.7154 2.32121 19.9789 2.24628C21.9905 1.66426 24.154 1.1272 26.0592 0.722537C27.498 0.392923 28.957 0.155952 30.4269 0.0131238C33.7661 -0.161732 35.5674 1.43695 37.5967 3.24045C39.2662 4.72173 41.0802 6.3304 43.9303 7.39951L44.6397 5.54854C43.4198 5.09085 42.2717 4.46515 41.2297 3.69008C51.5333 0.512711 58.8196 -1.30578 67.897 3.9049C72.0924 6.31041 79.627 4.1547 83.6046 5.97819C87.5821 7.80168 89.9813 13.7218 87.8152 16.7018C87.539 17.089 86.7081 17.2589 86.2571 17.3788L83.8579 18.0132C83.8485 17.4099 83.7634 16.81 83.6046 16.2272C83.3385 15.2441 82.8632 14.3281 82.2101 13.5402C81.557 12.7523 80.7412 12.1107 79.817 11.658C78.8928 11.2052 77.8813 10.9518 76.85 10.9145C75.8187 10.8773 74.7912 11.0571 73.8359 11.442C72.8805 11.8268 72.0193 12.4079 71.3095 13.1465C70.5997 13.8852 70.0577 14.7644 69.7194 15.7258C69.3812 16.6871 69.2545 17.7084 69.3479 18.7218C69.4412 19.7351 69.7524 20.7172 70.2607 21.6028L68.576 22.0499L60.5955 24.1581L58.437 24.7302L44.8449 28.3197C44.8388 27.7161 44.7536 27.1158 44.5916 26.5337C44.0742 24.7191 42.8523 23.1787 41.1908 22.2463C39.5293 21.3139 37.5621 21.0648 35.7155 21.5528C33.8689 22.0408 32.2919 23.2267 31.3261 24.8535C30.3603 26.4802 30.0837 28.4166 30.5561 30.2431C30.6144 30.4504 28.7827 31.1648 28.4483 31.1973C25.8439 31.1249 25.3194 22.4171 25.6437 16.0998C27.5388 17.7584 30.3839 18.1306 33.2999 17.9133C36.8822 17.6435 40.5684 16.4745 42.5369 15.815L41.8884 13.9466C40.006 14.5836 36.487 15.6951 33.1479 15.9449C30.4345 16.1523 27.8276 15.7851 26.4671 14.069C30.4447 13.7667 34.483 12.3854 36.221 11.7859C36.4743 11.696 36.6745 11.631 36.8569 11.5761L36.2666 9.69261C36.1678 9.71759 35.9094 9.80752 35.5648 9.92492C32.5475 10.9691 21.6864 14.6835 19.12 9.53524ZM71.5832 25.8293L58.9488 29.1665L58.4421 27.2831L71.0765 23.9433L71.5832 25.8293ZM32.8337 36.0708L20.1917 39.4105L19.685 37.5271L32.327 34.1873L32.8337 36.0708ZM25.4537 31.9742L12.8168 35.3164L12.3101 33.433L24.947 30.0957L25.4537 31.9742ZM75.2694 13.1647C76.2548 12.9049 77.2962 12.9388 78.2621 13.2622C79.2279 13.5856 80.0749 14.1839 80.6961 14.9817C81.3173 15.7794 81.6848 16.7407 81.7521 17.7443C81.8195 18.7478 81.5837 19.7485 81.0746 20.62C80.5655 21.4915 79.8058 22.1946 78.8916 22.6407C77.9774 23.0868 76.9496 23.2557 75.9381 23.1262C74.9266 22.9967 73.9766 22.5745 73.2083 21.913C72.44 21.2515 71.8877 20.3804 71.6212 19.4096C71.4442 18.7633 71.3981 18.089 71.4857 17.4252C71.5733 16.7614 71.7928 16.1212 72.1317 15.5411C72.4706 14.9611 72.9221 14.4526 73.4605 14.0448C73.999 13.6371 74.6136 13.338 75.2694 13.1647ZM36.2438 23.4812C37.2292 23.2219 38.2705 23.2562 39.2362 23.58C40.2018 23.9038 41.0485 24.5024 41.6693 25.3003C42.2901 26.0982 42.6572 27.0596 42.7242 28.0631C42.7912 29.0666 42.5552 30.0671 42.0458 30.9384C41.5365 31.8096 40.7767 32.5126 39.8624 32.9584C38.9482 33.4042 37.9204 33.5729 36.909 33.4432C35.8976 33.3134 34.9478 32.8911 34.1797 32.2295C33.4115 31.568 32.8594 30.6968 32.5931 29.726C32.4157 29.0796 32.3695 28.4051 32.4571 27.741C32.5447 27.077 32.7644 26.4365 33.1036 25.8564C33.4427 25.2762 33.8947 24.7678 34.4336 24.3602C34.9724 23.9526 35.5876 23.6539 36.2438 23.4812Z" fill="#589E46"/>
  <path d="M13.3261 68.145C9.52201 68.145 6.34996 66.959 3.80998 64.587C1.26999 62.215 0 59.1597 0 55.4211C0 51.6826 1.26999 48.6273 3.80998 46.2553C6.34996 43.8833 9.52201 42.6965 13.3261 42.6948C18.0049 42.6948 21.4959 44.6991 23.7991 48.7076L19.2186 50.919C18.6524 49.8713 17.8181 48.9881 16.7987 48.3573C15.767 47.6902 14.5595 47.3369 13.3261 47.3411C11.0463 47.3411 9.16946 48.1039 7.6955 49.6294C6.22154 51.155 5.48288 53.0856 5.47952 55.4211C5.47952 57.7567 6.21818 59.6864 7.6955 61.2103C9.17282 62.7343 11.0497 63.497 13.3261 63.4987C14.5565 63.5044 15.7623 63.1593 16.7987 62.5048C17.8273 61.8764 18.6638 60.9841 19.2186 59.9233L23.7991 62.0998C21.4203 66.1332 17.9293 68.1491 13.3261 68.1475" fill="#589E46"/>
  <path d="M42.6717 67.7008H37.7872V65.8394C36.454 67.3797 34.4921 68.1489 31.9015 68.1473C30.261 68.1569 28.6711 67.5954 27.4195 66.5644C26.0984 65.5108 25.4387 64.0525 25.4404 62.1896C25.4404 60.253 26.0872 58.8006 27.3808 57.8323C28.675 56.8642 30.2689 56.3521 31.9015 56.3798C34.542 56.3798 36.5039 57.1123 37.7872 58.5773V56.1465C37.7995 55.7194 37.7041 55.2959 37.5093 54.9129C37.3146 54.5299 37.0264 54.199 36.6699 53.9491C35.9268 53.4072 34.9394 53.1363 33.7077 53.1363C31.6871 53.1354 29.7448 53.8961 28.2891 55.2585L26.4416 52.0928C28.6486 50.2064 31.3536 49.2632 34.5566 49.2632C36.9443 49.2632 38.8933 49.7967 40.4036 50.8636C41.914 51.9306 42.6708 53.6681 42.6743 56.0763L42.6717 67.7008ZM33.8625 64.9414C35.6842 64.9414 36.9925 64.4196 37.7872 63.3761V61.141C36.989 60.0991 35.6808 59.5782 33.8625 59.5782C32.9698 59.5463 32.0911 59.8011 31.3622 60.3032C31.0401 60.5303 30.7805 60.8311 30.6064 61.1789C30.4322 61.5267 30.3489 61.9108 30.3637 62.2974C30.3498 62.6757 30.4339 63.0513 30.6084 63.3897C30.7829 63.7281 31.0421 64.0185 31.3622 64.234C32.0958 64.7249 32.9726 64.9729 33.8625 64.9414Z" fill="#589E46"/>
  <path d="M50.7793 68.1474H45.957V49.7206H50.7793V52.2392C51.4932 51.3483 52.3856 50.6197 53.398 50.101C54.3905 49.5614 55.4983 49.2738 56.6256 49.2632V53.9971C56.1887 53.9099 55.7437 53.8711 55.2984 53.8814C54.4044 53.9001 53.5242 54.1085 52.7153 54.4931C51.8033 54.8991 51.158 55.3952 50.7793 55.9811V68.1474Z" fill="#589E46"/>
  <path d="M66.7314 68.1475H62.0283V54.1639H59.0876V49.9907H62.0283V49.0132C62.0283 47.0836 62.5854 45.5481 63.6995 44.4069C64.8137 43.2657 66.2524 42.6959 68.0156 42.6976C69.1863 42.6648 70.3471 42.9255 71.3975 43.4573L70.4412 46.9139C69.9974 46.6055 69.4706 46.4479 68.9351 46.4631C68.6335 46.447 68.3322 46.4995 68.0527 46.6168C67.7732 46.7341 67.5224 46.9134 67.3181 47.1418C66.927 47.5926 66.7314 48.2189 66.7314 49.0208V49.9983H70.3376V54.1715H66.7388L66.7314 68.1475Z" fill="#589E46"/>
  <path d="M78.7833 42.6948H73.8594V68.1475H78.7833V42.6948Z" fill="#589E46"/>
  <path d="M81.56 76.9184L82.2722 72.649C82.7763 72.8603 83.3225 72.9518 83.8678 72.9163C85.8635 72.7776 87.2427 71.5672 87.9247 69.9634L88.5992 68.4276L81.2454 50.0845H86.3467L91.0757 62.6629L95.8021 50.0845H100.941L92.4246 71.1234C91.4733 73.5367 90.4112 74.906 88.4407 76.1063C87.3358 76.7797 85.6245 77.1277 83.9232 77.1781C83.1281 77.1901 82.3346 77.1054 81.56 76.9259" fill="#589E46"/>
</svg>
